#!OML:ASF H:\Terrain\Patient Classification 1\Takeo\Monday\TakeoMonday.ASF
:FULLY-SPECIFIED
:DEGREES
141
root 9.8054 17.4602 -3.22711 -6.895 -30.5578 1.71669
lowerback 7.46462 1.05044 4.29934
upperback 3.32393 1.6823 2.54238
thorax -0.698165 0.845208 0.0763031
lowerneck -17.7922 3.56454 0.9457
upperneck 7.64729 4.80191 -2.18388
head 5.24789 2.20786 -0.38367
rclavicle -3.18055e-014 3.97569e-014
rhumerus 59.512 34.3633 -62.5581
rradius 50.4464
rwrist -26.2184
rhand -47.8837 37.776
rfingers 7.12502
rthumb -20.5566 8.84443
lclavicle -3.18055e-014 3.97569e-014
lhumerus 61.9941 -14.8195 61.5066
lradius 71.3646
lwrist 42.2556
lhand -43.9186 26.1694
lfingers 7.12502
lthumb -16.7428 55.4674
rfemur 5.035 -1.21203 19.5212
rtibia 23.8215
rfoot -21.3489 -15.5515
rtoes -4.82774
lfemur -15.965 3.51494 -16.9075
ltibia 29.8229
lfoot -3.71037 11.2454
ltoes -3.54355
142
root 9.83432 17.4691 -3.20907 -6.47815 -31.0222 1.62098
lowerback 7.76435 1.05244 4.22449
upperback 3.51679 1.68653 2.60455
thorax -0.668431 0.846842 0.178102
lowerneck -18.0896 3.63151 0.917227
upperneck 7.60715 4.89792 -2.21459
head 5.2838 2.24892 -0.375155
rclavicle -9.36276e-014 3.18055e-015
rhumerus 59.0142 35.1128 -62.5751
rradius 50.179
rwrist -25.5853
rhand -48.4539 33.9666
rfingers 7.12502
rthumb -21.1045 5.0952
lclavicle -9.36276e-014 3.18055e-015
lhumerus 61.2348 -15.0281 62.2312
lradius 70.5545
lwrist 42.5439
lhand -44.1518 26.339
lfingers 7.12502
lthumb -16.9673 55.6179
rfemur 4.60457 -0.810408 19.5396
rtibia 23.8171
rfoot -21.3555 -15.3196
rtoes -3.50798
lfemur -16.2207 3.72134 -16.8697
ltibia 29.6726
lfoot -3.78159 11.5126
ltoes -2.8054
143
root 9.86617 17.4819 -3.199 -6.13976 -31.4808 1.60468
lowerback 8.30717 1.07554 4.0344
upperback 3.61025 1.73017 2.68041
thorax -0.878769 0.862391 0.348305
lowerneck -18.199 3.71326 0.823189
upperneck 7.53126 5.02241 -2.18371
head 5.2756 2.30873 -0.337449
rclavicle -9.25343e-014 1.43125e-014
rhumerus 58.6865 35.9739 -62.2804
rradius 49.9031
rwrist -26.7749
rhand -48.3973 30.3116
rfingers 7.12502
rthumb -21.0501 1.43409
lclavicle -9.25343e-014 1.43125e-014
lhumerus 60.2858 -15.2311 63.2516
lradius 69.6654
lwrist 43.0988
lhand -43.8542 26.3476
lfingers 7.12502
lthumb -16.6808 55.6508
rfemur 4.1059 -0.304672 19.5073
rtibia 23.8318
rfoot -21.1152 -15.5227
rtoes -4.75528
lfemur -16.4058 3.64413 -16.8952
ltibia 29.4435
lfoot -3.73376 12.0312
ltoes -1.54796
144
root 9.90313 17.4945 -3.1865 -5.93381 -31.8833 1.89116
lowerback 8.79796 1.13794 3.85488
upperback 3.72622 1.81884 2.59727
thorax -1.03057 0.903237 0.345535
lowerneck -17.926 3.63419 0.45686
upperneck 6.90992 4.95796 -1.94861
head 5.01982 2.29251 -0.223609
rclavicle 1.97791e-014 3.65764e-014
rhumerus 58.2201 36.4467 -62.1813
rradius 49.4917
rwrist -28.5489
rhand -46.9257 30.3225
rfingers 7.12502
rthumb -19.6358 1.2942
lclavicle 1.97791e-014 3.65764e-014
lhumerus 59.4536 -15.4763 64.243
lradius 68.9053
lwrist 43.772
lhand -43.4719 26.0061
lfingers 7.12502
lthumb -16.3128 55.34
rfemur 3.55193 0.082933 19.1416
rtibia 23.9087
rfoot -20.8933 -15.653
rtoes -6.55152
lfemur -16.6451 3.68381 -17.229
ltibia 29.1696
lfoot -3.58704 12.3753
ltoes -1.51165
145
root 9.93787 17.5061 -3.17061 -5.5662 -32.1483 2.1535
lowerback 8.97299 1.15177 3.79686
upperback 3.94307 1.82629 2.33712
thorax -0.895409 0.911188 0.108042
lowerneck -17.8434 3.54359 0.493318
upperneck 6.10429 4.79223 -1.82055
head 4.74878 2.2296 -0.215171
rclavicle -9.93923e-016 3.18055e-015
rhumerus 57.5747 36.6768 -62.6152
rradius 49.0575
rwrist -28.526
rhand -46.9186 30.5452
rfingers 7.12502
rthumb -19.629 1.51616
lclavicle -9.93923e-016 3.18055e-015
lhumerus 58.8379 -15.6895 64.7584
lradius 68.1641
lwrist 44.1105
lhand -43.2202 25.5553
lfingers 7.12502
lthumb -16.0704 54.9089
rfemur 2.85309 0.119066 18.7336
rtibia 24.0589
rfoot -20.6757 -15.6385
rtoes -6.98454
lfemur -17.082 3.88961 -17.5877
ltibia 28.9287
lfoot -3.42063 12.4197
ltoes -2.4003
146
root 9.96875 17.5187 -3.15773 -4.89678 -32.5039 1.89716
lowerback 9.28149 1.06038 3.87517
upperback 4.06141 1.71979 2.30619
thorax -0.941177 0.857849 0.0373194
lowerneck -17.8917 3.65524 0.730231
upperneck 5.75616 4.89819 -2.01551
head 4.65908 2.27635 -0.306627
rclavicle 2.36554e-014 -4.13472e-014
rhumerus 56.7469 37.3162 -63.4567
rradius 48.642
rwrist -28.3411
rhand -46.2886 30.0058
rfingers 7.12502
rthumb -19.0233 0.916086
lclavicle 2.36554e-014 -4.13472e-014
lhumerus 57.8437 -15.6359 65.2094
lradius 67.5419
lwrist 44.0903
lhand -42.8774 25.8997
lfingers 7.12502
lthumb -15.7403 55.2796
rfemur 2.08637 0.267027 18.8591
rtibia 24.2032
rfoot -20.3742 -15.6847
rtoes -6.9816
lfemur -17.5707 4.22962 -17.4695
ltibia 28.7722
lfoot -3.21183 12.4025
ltoes -3.27026
147
root 10.0053 17.5265 -3.14067 -4.31436 -33.1033 1.63341
lowerback 9.7967 1.05388 3.9454
upperback 4.10967 1.742 2.40308
thorax -1.17369 0.863689 0.0855286
lowerneck -17.8439 3.84104 0.791865
upperneck 5.70575 5.1504 -2.19838
head 4.64584 2.3899 -0.35155
rclavicle 5.96354e-015 -2.54444e-014
rhumerus 55.6975 38.2077 -64.0747
rradius 48.4528
rwrist -28.3814
rhand -46.0996 29.1372
rfingers 7.12502
rthumb -18.8415 0.0297608
lclavicle 5.96354e-015 -2.54444e-014
lhumerus 56.7821 -15.6822 65.9264
lradius 66.9324
lwrist 44.6097
lhand -42.6376 26.8529
lfingers 7.12502
lthumb -15.5093 56.2509
rfemur 1.40154 0.75291 18.9933
rtibia 24.32
rfoot -20.1958 -15.5708
rtoes -6.65875
lfemur -17.9635 4.53776 -17.3237
ltibia 28.7656
lfoot -3.32927 12.6618
ltoes -2.82671
148
root 10.0454 17.5357 -3.11509 -3.99775 -33.7491 1.78013
lowerback 10.2819 1.14262 3.81198
upperback 4.22121 1.86474 2.34567
thorax -1.32301 0.920987 0.0784528
lowerneck -17.6496 3.8671 0.972538
upperneck 5.21075 5.16072 -2.48107
head 4.47373 2.38645 -0.475826
rclavicle -1.23246e-014 -6.36111e-015
rhumerus 54.543 38.8108 -64.6759
rradius 48.3181
rwrist -28.509
rhand -46.5329 29.1905
rfingers 7.12502
rthumb -19.2582 0.124036
lclavicle -1.23246e-014 -6.36111e-015
lhumerus 55.8951 -15.8912 66.7848
lradius 66.1643
lwrist 45.3473
lhand -42.7276 27.5776
lfingers 7.12502
lthumb -15.596 56.9688
rfemur 0.794128 1.20754 18.6769
rtibia 24.4296
rfoot -20.0401 -15.3449
rtoes -6.89563
lfemur -18.3491 4.90765 -17.5965
ltibia 28.92
lfoot -3.59053 12.9539
ltoes -2.38134
149
root 10.0857 17.5415 -3.1034 -3.41598 -34.1243 1.82244
lowerback 10.7933 1.1069 3.57065
upperback 4.21168 1.81998 2.35685
thorax -1.62238 0.891003 0.218341
lowerneck -17.4692 3.8224 1.02023
upperneck 4.68753 5.10405 -2.77077
head 4.29138 2.34729 -0.586959
rclavicle -5.9039e-014 1.90833e-014
rhumerus 53.9258 39.5674 -64.7408
rradius 48.0674
rwrist -29.1889
rhand -46.4243 29.5984
rfingers 7.12502
rthumb -19.1537 0.521559
lclavicle -5.9039e-014 1.90833e-014
lhumerus 54.6283 -15.8886 67.8417
lradius 65.5822
lwrist 45.5598
lhand -42.9875 28.1091
lfingers 7.12502
lthumb -15.8463 57.4807
rfemur -0.0368717 1.5612 18.4922
rtibia 24.5452
rfoot -19.9264 -15.2317
rtoes -6.89397
lfemur -19.1374 5.44243 -17.8218
ltibia 29.1267
lfoot -3.48686 12.8111
ltoes -3.05526
150
root 10.1272 17.5437 -3.10845 -2.46051 -34.3664 1.5467
lowerback 11.1571 1.01982 3.61515
upperback 4.23846 1.72507 2.37588
thorax -1.79415 0.840272 0.217286
lowerneck -17.4747 3.92627 0.877004
upperneck 4.29186 5.24478 -2.60699
head 4.16261 2.42779 -0.505885
rclavicle 3.93594e-014 4.77083e-015
rhumerus 53.8975 40.3427 -64.2572
rradius 47.7825
rwrist -30.091
rhand -46.6347 30.4209
rfingers 7.12502
rthumb -19.3561 1.36427
lclavicle 3.93594e-014 4.77083e-015
lhumerus 53.4812 -15.8074 68.73
lradius 65.1226
lwrist 45.3475
lhand -42.7073 28.8518
lfingers 7.12502
lthumb -15.5765 58.2446
rfemur -1.12707 2.02122 18.6755
rtibia 24.6839
rfoot -19.8662 -15.2967
rtoes -6.56527
lfemur -20.2475 5.92916 -17.7595
ltibia 29.3365
lfoot -3.3035 12.5552
ltoes -3.65526
